<mxfile host="65bd71144e" modified="2021-01-18T17:55:29.431Z" agent="5.0 (Windows NT 10.0; Win64; x64) AppleWebKit/537.36 (KHTML, like Gecko) Code/1.52.1 Chrome/83.0.4103.122 Electron/9.3.5 Safari/537.36" etag="OVqHoPvxS4AUdjTyvF80" version="13.10.0" type="embed">
    <diagram id="B1m8N1UM_1S-K_if4usi" name="Page-1">
        <mxGraphModel dx="734" dy="437" grid="0" gridSize="10" guides="1" tooltips="1" connect="1" arrows="1" fold="1" page="1" pageScale="1" pageWidth="850" pageHeight="1100" background="none" math="0" shadow="0">
            <root>
                <mxCell id="0"/>
                <mxCell id="1" parent="0"/>
                <mxCell id="d1gTPSpbbqNG_WyXYO8l-3" style="edgeStyle=none;rounded=0;orthogonalLoop=1;jettySize=auto;html=1;exitX=0.5;exitY=1;exitDx=0;exitDy=0;entryX=0.5;entryY=0;entryDx=0;entryDy=0;" parent="1" source="d1gTPSpbbqNG_WyXYO8l-1" target="d1gTPSpbbqNG_WyXYO8l-2" edge="1">
                    <mxGeometry relative="1" as="geometry"/>
                </mxCell>
                <mxCell id="d1gTPSpbbqNG_WyXYO8l-1" value="/ (root)" style="rounded=1;whiteSpace=wrap;html=1;" parent="1" vertex="1">
                    <mxGeometry x="365" y="20" width="120" height="60" as="geometry"/>
                </mxCell>
                <mxCell id="d1gTPSpbbqNG_WyXYO8l-2" value="/users" style="rounded=1;whiteSpace=wrap;html=1;" parent="1" vertex="1">
                    <mxGeometry x="365" y="110" width="120" height="60" as="geometry"/>
                </mxCell>
                <mxCell id="Xjxq3Y1QTQwHy-LUefCz-23" style="edgeStyle=none;rounded=0;orthogonalLoop=1;jettySize=auto;html=1;exitX=0;exitY=1;exitDx=0;exitDy=0;entryX=0.5;entryY=0;entryDx=0;entryDy=0;" parent="1" source="Xjxq3Y1QTQwHy-LUefCz-1" target="Xjxq3Y1QTQwHy-LUefCz-16" edge="1">
                    <mxGeometry relative="1" as="geometry"/>
                </mxCell>
                <mxCell id="Xjxq3Y1QTQwHy-LUefCz-24" style="edgeStyle=none;rounded=0;orthogonalLoop=1;jettySize=auto;html=1;exitX=1;exitY=1;exitDx=0;exitDy=0;entryX=0.5;entryY=0;entryDx=0;entryDy=0;" parent="1" source="Xjxq3Y1QTQwHy-LUefCz-1" target="Xjxq3Y1QTQwHy-LUefCz-3" edge="1">
                    <mxGeometry relative="1" as="geometry"/>
                </mxCell>
                <mxCell id="6" style="edgeStyle=orthogonalEdgeStyle;rounded=0;orthogonalLoop=1;jettySize=auto;html=1;entryX=0;entryY=0.5;entryDx=0;entryDy=0;" parent="1" target="d1gTPSpbbqNG_WyXYO8l-2" edge="1">
                    <mxGeometry relative="1" as="geometry">
                        <mxPoint x="120" y="140" as="sourcePoint"/>
                        <mxPoint x="320" y="190" as="targetPoint"/>
                    </mxGeometry>
                </mxCell>
                <mxCell id="Xjxq3Y1QTQwHy-LUefCz-1" value="list_users.html" style="rounded=1;whiteSpace=wrap;html=1;" parent="1" vertex="1">
                    <mxGeometry x="365" y="200" width="120" height="60" as="geometry"/>
                </mxCell>
                <mxCell id="Xjxq3Y1QTQwHy-LUefCz-9" style="edgeStyle=orthogonalEdgeStyle;rounded=0;orthogonalLoop=1;jettySize=auto;html=1;exitX=1;exitY=0.5;exitDx=0;exitDy=0;entryX=0;entryY=0.5;entryDx=0;entryDy=0;" parent="1" source="Xjxq3Y1QTQwHy-LUefCz-3" target="Xjxq3Y1QTQwHy-LUefCz-8" edge="1">
                    <mxGeometry relative="1" as="geometry"/>
                </mxCell>
                <mxCell id="Xjxq3Y1QTQwHy-LUefCz-3" value="/users/new" style="rounded=1;whiteSpace=wrap;html=1;" parent="1" vertex="1">
                    <mxGeometry x="485" y="320" width="120" height="60" as="geometry"/>
                </mxCell>
                <mxCell id="Xjxq3Y1QTQwHy-LUefCz-11" value="" style="edgeStyle=orthogonalEdgeStyle;rounded=0;orthogonalLoop=1;jettySize=auto;html=1;" parent="1" source="Xjxq3Y1QTQwHy-LUefCz-8" target="Xjxq3Y1QTQwHy-LUefCz-10" edge="1">
                    <mxGeometry relative="1" as="geometry"/>
                </mxCell>
                <mxCell id="Xjxq3Y1QTQwHy-LUefCz-8" value="add_user.html" style="rounded=1;whiteSpace=wrap;html=1;" parent="1" vertex="1">
                    <mxGeometry x="640" y="320" width="120" height="60" as="geometry"/>
                </mxCell>
                <mxCell id="Xjxq3Y1QTQwHy-LUefCz-25" style="edgeStyle=none;rounded=0;orthogonalLoop=1;jettySize=auto;html=1;exitX=0;exitY=0.5;exitDx=0;exitDy=0;" parent="1" source="Xjxq3Y1QTQwHy-LUefCz-10" edge="1">
                    <mxGeometry relative="1" as="geometry">
                        <mxPoint x="490" y="140" as="targetPoint"/>
                    </mxGeometry>
                </mxCell>
                <mxCell id="Xjxq3Y1QTQwHy-LUefCz-10" value="/users/new (POST)" style="rounded=1;whiteSpace=wrap;html=1;" parent="1" vertex="1">
                    <mxGeometry x="640" y="110" width="120" height="60" as="geometry"/>
                </mxCell>
                <mxCell id="Xjxq3Y1QTQwHy-LUefCz-13" value="redirect" style="text;html=1;strokeColor=none;fillColor=none;align=center;verticalAlign=middle;whiteSpace=wrap;rounded=0;" parent="1" vertex="1">
                    <mxGeometry x="600" y="140" width="40" height="20" as="geometry"/>
                </mxCell>
                <mxCell id="Xjxq3Y1QTQwHy-LUefCz-14" style="edgeStyle=orthogonalEdgeStyle;rounded=0;orthogonalLoop=1;jettySize=auto;html=1;exitX=0.5;exitY=1;exitDx=0;exitDy=0;entryX=0.5;entryY=0;entryDx=0;entryDy=0;" parent="1" source="d1gTPSpbbqNG_WyXYO8l-2" target="Xjxq3Y1QTQwHy-LUefCz-1" edge="1">
                    <mxGeometry relative="1" as="geometry"/>
                </mxCell>
                <mxCell id="Xjxq3Y1QTQwHy-LUefCz-15" value="Add User" style="text;html=1;strokeColor=none;fillColor=none;align=center;verticalAlign=middle;whiteSpace=wrap;rounded=0;" parent="1" vertex="1">
                    <mxGeometry x="470" y="280" width="40" height="20" as="geometry"/>
                </mxCell>
                <mxCell id="Xjxq3Y1QTQwHy-LUefCz-22" style="edgeStyle=none;rounded=0;orthogonalLoop=1;jettySize=auto;html=1;exitX=0.5;exitY=1;exitDx=0;exitDy=0;" parent="1" source="Xjxq3Y1QTQwHy-LUefCz-16" target="Xjxq3Y1QTQwHy-LUefCz-18" edge="1">
                    <mxGeometry relative="1" as="geometry"/>
                </mxCell>
                <mxCell id="Xjxq3Y1QTQwHy-LUefCz-16" value="/users/user.id" style="rounded=1;whiteSpace=wrap;html=1;" parent="1" vertex="1">
                    <mxGeometry x="245" y="320" width="120" height="60" as="geometry"/>
                </mxCell>
                <mxCell id="Xjxq3Y1QTQwHy-LUefCz-30" style="edgeStyle=none;rounded=0;orthogonalLoop=1;jettySize=auto;html=1;exitX=0.5;exitY=1;exitDx=0;exitDy=0;entryX=0;entryY=0;entryDx=0;entryDy=0;" parent="1" source="Xjxq3Y1QTQwHy-LUefCz-18" target="Xjxq3Y1QTQwHy-LUefCz-28" edge="1">
                    <mxGeometry relative="1" as="geometry"/>
                </mxCell>
                <mxCell id="Xjxq3Y1QTQwHy-LUefCz-31" style="edgeStyle=none;rounded=0;orthogonalLoop=1;jettySize=auto;html=1;exitX=0.5;exitY=1;exitDx=0;exitDy=0;entryX=1;entryY=0;entryDx=0;entryDy=0;" parent="1" source="Xjxq3Y1QTQwHy-LUefCz-18" target="Xjxq3Y1QTQwHy-LUefCz-29" edge="1">
                    <mxGeometry relative="1" as="geometry"/>
                </mxCell>
                <mxCell id="Xjxq3Y1QTQwHy-LUefCz-18" value="detail-user.html" style="rounded=1;whiteSpace=wrap;html=1;" parent="1" vertex="1">
                    <mxGeometry x="245" y="410" width="120" height="60" as="geometry"/>
                </mxCell>
                <mxCell id="Xjxq3Y1QTQwHy-LUefCz-27" value="Show Detail" style="text;html=1;strokeColor=none;fillColor=none;align=center;verticalAlign=middle;whiteSpace=wrap;rounded=0;" parent="1" vertex="1">
                    <mxGeometry x="340" y="280" width="40" height="20" as="geometry"/>
                </mxCell>
                <mxCell id="Xjxq3Y1QTQwHy-LUefCz-37" style="edgeStyle=none;rounded=0;orthogonalLoop=1;jettySize=auto;html=1;entryX=0.5;entryY=1;entryDx=0;entryDy=0;" parent="1" target="Xjxq3Y1QTQwHy-LUefCz-1" edge="1">
                    <mxGeometry relative="1" as="geometry">
                        <mxPoint x="430" y="526" as="sourcePoint"/>
                    </mxGeometry>
                </mxCell>
                <mxCell id="Xjxq3Y1QTQwHy-LUefCz-28" value="&lt;span&gt;/users/user.id/delete&lt;/span&gt;" style="rounded=1;whiteSpace=wrap;html=1;" parent="1" vertex="1">
                    <mxGeometry x="365" y="530" width="120" height="60" as="geometry"/>
                </mxCell>
                <mxCell id="kS01yKRe7qh5U92pJ__t-3" value="" style="edgeStyle=none;rounded=0;orthogonalLoop=1;jettySize=auto;html=1;" parent="1" source="Xjxq3Y1QTQwHy-LUefCz-29" target="kS01yKRe7qh5U92pJ__t-2" edge="1">
                    <mxGeometry relative="1" as="geometry"/>
                </mxCell>
                <mxCell id="Xjxq3Y1QTQwHy-LUefCz-29" value="&lt;font style=&quot;font-size: 12px&quot;&gt;/users/user.id/edit&lt;/font&gt;" style="rounded=1;whiteSpace=wrap;html=1;" parent="1" vertex="1">
                    <mxGeometry x="100" y="530" width="120" height="60" as="geometry"/>
                </mxCell>
                <mxCell id="Xjxq3Y1QTQwHy-LUefCz-32" value="Edit User" style="text;html=1;strokeColor=none;fillColor=none;align=center;verticalAlign=middle;whiteSpace=wrap;rounded=0;" parent="1" vertex="1">
                    <mxGeometry x="230" y="480" width="40" height="20" as="geometry"/>
                </mxCell>
                <mxCell id="Xjxq3Y1QTQwHy-LUefCz-33" value="Delete User" style="text;html=1;strokeColor=none;fillColor=none;align=center;verticalAlign=middle;whiteSpace=wrap;rounded=0;" parent="1" vertex="1">
                    <mxGeometry x="330" y="480" width="40" height="20" as="geometry"/>
                </mxCell>
                <mxCell id="Xjxq3Y1QTQwHy-LUefCz-38" value="redirect" style="text;html=1;strokeColor=none;fillColor=none;align=center;verticalAlign=middle;whiteSpace=wrap;rounded=0;" parent="1" vertex="1">
                    <mxGeometry x="430" y="490" width="40" height="20" as="geometry"/>
                </mxCell>
                <mxCell id="5" style="edgeStyle=orthogonalEdgeStyle;rounded=0;orthogonalLoop=1;jettySize=auto;html=1;exitX=0.5;exitY=0;exitDx=0;exitDy=0;" parent="1" source="kS01yKRe7qh5U92pJ__t-1" edge="1">
                    <mxGeometry relative="1" as="geometry">
                        <mxPoint x="160" y="140" as="targetPoint"/>
                    </mxGeometry>
                </mxCell>
                <mxCell id="kS01yKRe7qh5U92pJ__t-1" value="&lt;font style=&quot;font-size: 12px&quot;&gt;/users/user.id/edit (POST)&lt;/font&gt;" style="rounded=1;whiteSpace=wrap;html=1;" parent="1" vertex="1">
                    <mxGeometry x="100" y="320" width="120" height="60" as="geometry"/>
                </mxCell>
                <mxCell id="kS01yKRe7qh5U92pJ__t-4" value="" style="edgeStyle=none;rounded=0;orthogonalLoop=1;jettySize=auto;html=1;" parent="1" source="kS01yKRe7qh5U92pJ__t-2" target="kS01yKRe7qh5U92pJ__t-1" edge="1">
                    <mxGeometry relative="1" as="geometry"/>
                </mxCell>
                <mxCell id="kS01yKRe7qh5U92pJ__t-8" style="edgeStyle=orthogonalEdgeStyle;rounded=0;orthogonalLoop=1;jettySize=auto;html=1;exitX=0;exitY=0.5;exitDx=0;exitDy=0;" parent="1" source="kS01yKRe7qh5U92pJ__t-2" edge="1">
                    <mxGeometry relative="1" as="geometry">
                        <mxPoint x="120" y="140" as="targetPoint"/>
                        <Array as="points">
                            <mxPoint x="80" y="440"/>
                            <mxPoint x="80" y="140"/>
                        </Array>
                    </mxGeometry>
                </mxCell>
                <mxCell id="kS01yKRe7qh5U92pJ__t-2" value="edit-user.html" style="rounded=1;whiteSpace=wrap;html=1;" parent="1" vertex="1">
                    <mxGeometry x="100" y="410" width="120" height="60" as="geometry"/>
                </mxCell>
                <mxCell id="kS01yKRe7qh5U92pJ__t-6" value="&lt;font style=&quot;font-size: 24px&quot;&gt;BLOGLY Logic Flow&lt;/font&gt;" style="text;html=1;strokeColor=none;fillColor=none;align=center;verticalAlign=middle;whiteSpace=wrap;rounded=0;" parent="1" vertex="1">
                    <mxGeometry x="60" y="40" width="240" height="20" as="geometry"/>
                </mxCell>
                <mxCell id="kS01yKRe7qh5U92pJ__t-7" value="&lt;font style=&quot;font-size: 14px&quot;&gt;Routes &amp;amp; Templates&lt;/font&gt;" style="text;html=1;strokeColor=none;fillColor=none;align=center;verticalAlign=middle;whiteSpace=wrap;rounded=0;" parent="1" vertex="1">
                    <mxGeometry x="70" y="70" width="210" height="20" as="geometry"/>
                </mxCell>
                <mxCell id="kS01yKRe7qh5U92pJ__t-9" value="Cancel" style="text;html=1;strokeColor=none;fillColor=none;align=center;verticalAlign=middle;whiteSpace=wrap;rounded=0;" parent="1" vertex="1">
                    <mxGeometry x="30" y="420" width="40" height="20" as="geometry"/>
                </mxCell>
                <mxCell id="kS01yKRe7qh5U92pJ__t-10" value="redirect" style="text;html=1;strokeColor=none;fillColor=none;align=center;verticalAlign=middle;whiteSpace=wrap;rounded=0;" parent="1" vertex="1">
                    <mxGeometry x="160" y="290" width="40" height="20" as="geometry"/>
                </mxCell>
                <mxCell id="3" value="redirect" style="text;html=1;strokeColor=none;fillColor=none;align=center;verticalAlign=middle;whiteSpace=wrap;rounded=0;" parent="1" vertex="1">
                    <mxGeometry x="380" y="80" width="40" height="20" as="geometry"/>
                </mxCell>
            </root>
        </mxGraphModel>
    </diagram>
</mxfile>